<?xml version="1.0" encoding="UTF-8"?>
<!DOCTYPE svg PUBLIC "-//W3C//DTD SVG 1.1//EN" "http://www.w3.org/Graphics/SVG/1.1/DTD/svg11.dtd">
<svg xmlns="http://www.w3.org/2000/svg" version="1.1" width="1024px" height="1024px" style="shape-rendering:geometricPrecision; text-rendering:geometricPrecision; image-rendering:optimizeQuality; fill-rule:evenodd; clip-rule:evenodd" xmlns:xlink="http://www.w3.org/1999/xlink">
<g><path style="opacity:1" fill="#fbfdfc" d="M -0.5,-0.5 C 340.833,-0.5 682.167,-0.5 1023.5,-0.5C 1023.5,340.833 1023.5,682.167 1023.5,1023.5C 682.167,1023.5 340.833,1023.5 -0.5,1023.5C -0.5,682.167 -0.5,340.833 -0.5,-0.5 Z"/></g>
<g><path style="opacity:1" fill="#1c1d1f" d="M 273.5,73.5 C 367.284,72.1867 431.45,114.853 466,201.5C 473.579,226.62 476.412,252.287 474.5,278.5C 459.439,284.549 447.105,294.215 437.5,307.5C 437.167,307 436.833,306.5 436.5,306C 456.006,229.154 433.006,168.821 367.5,125C 302.807,91.2975 242.473,97.6308 186.5,144C 136.322,194.237 123.822,252.737 149,319.5C 180.534,383.201 232.034,414.035 303.5,412C 347.805,406.932 383.972,387.099 412,352.5C 408.917,359.803 406.584,367.47 405,375.5C 403.85,384.791 403.184,394.124 403,403.5C 358.069,436.825 307.902,448.658 252.5,439C 184.579,422.412 138.745,381.245 115,315.5C 95.1773,248.034 107.844,187.701 153,134.5C 185.699,99.4005 225.866,79.0671 273.5,73.5 Z"/></g>
<g><path style="opacity:1" fill="#1d2021" d="M 284.5,123.5 C 298.815,122.116 304.315,128.449 301,142.5C 294.075,151.365 286.742,151.698 279,143.5C 275.572,135.169 277.406,128.502 284.5,123.5 Z"/></g>
<g><path style="opacity:1" fill="#1e2021" d="M 347.5,138.5 C 361.581,138.404 366.748,145.07 363,158.5C 353.465,168.686 345.465,167.686 339,155.5C 338.035,151.218 338.702,147.218 341,143.5C 343.352,141.97 345.519,140.303 347.5,138.5 Z"/></g>
<g><path style="opacity:1" fill="#1d2021" d="M 223.5,138.5 C 235.753,138.254 241.253,144.254 240,156.5C 235.968,164.037 229.802,166.537 221.5,164C 211.58,154.619 212.247,146.119 223.5,138.5 Z"/></g>
<g><path style="opacity:1" fill="#1b1d1f" d="M 285.5,167.5 C 294.364,166.68 300.53,170.347 304,178.5C 304.167,196.842 304.667,215.176 305.5,233.5C 321.016,244.885 324.516,259.218 316,276.5C 311.417,283.372 305.251,288.206 297.5,291C 291.765,291.804 286.098,292.804 280.5,294C 266.833,306.333 253.167,318.667 239.5,331C 224.763,335.613 217.263,330.113 217,314.5C 217.667,313.167 218.333,311.833 219,310.5C 232.016,297.983 245.183,285.65 258.5,273.5C 255.399,258.639 259.399,246.139 270.5,236C 272.025,234.991 273.692,234.491 275.5,234.5C 275.333,215.497 275.5,196.497 276,177.5C 278.022,172.98 281.189,169.647 285.5,167.5 Z"/></g>
<g><path style="opacity:1" fill="#1e2124" d="M 179.5,184.5 C 192.615,184.119 198.115,190.452 196,203.5C 192.024,210.236 186.191,212.736 178.5,211C 172.021,206.96 169.521,201.127 171,193.5C 172.688,189.315 175.521,186.315 179.5,184.5 Z"/></g>
<g><path style="opacity:1" fill="#1d1e20" d="M 390.5,185.5 C 403.1,183.608 409.267,188.942 409,201.5C 405.69,209.952 399.523,213.118 390.5,211C 383.919,206.486 381.753,200.32 384,192.5C 385.694,189.642 387.861,187.309 390.5,185.5 Z"/></g>
<g><path style="opacity:1" fill="#1d2123" d="M 407.5,245.5 C 422.247,245.721 427.414,252.721 423,266.5C 418.426,271.15 412.926,272.65 406.5,271C 399.915,266.532 397.748,260.365 400,252.5C 402.396,249.933 404.896,247.6 407.5,245.5 Z"/></g>
<g><path style="opacity:1" fill="#f0f1f2" d="M 286.5,252.5 C 295.42,252.893 298.586,257.227 296,265.5C 290.513,271.133 285.846,270.466 282,263.5C 281.333,261.5 281.333,259.5 282,257.5C 283.517,255.76 285.017,254.094 286.5,252.5 Z"/></g>
<g><path style="opacity:1" fill="#1d2023" d="M 163.5,245.5 C 179.508,246.022 184.174,253.522 177.5,268C 161.413,275.249 154.247,270.082 156,252.5C 157.742,249.254 160.242,246.921 163.5,245.5 Z"/></g>
<g><path style="opacity:1" fill="#1a1b1d" d="M 655.5,367.5 C 654.571,366.064 653.405,364.731 652,363.5C 651.5,364.5 651,365.5 650.5,366.5C 646.893,367.489 643.226,367.823 639.5,367.5C 639.5,372.833 639.5,378.167 639.5,383.5C 642.167,383.5 644.833,383.5 647.5,383.5C 647.5,386.167 647.5,388.833 647.5,391.5C 644.833,391.5 642.167,391.5 639.5,391.5C 639.5,399.5 639.5,407.5 639.5,415.5C 643.833,415.5 648.167,415.5 652.5,415.5C 652.5,420.833 652.5,426.167 652.5,431.5C 651.5,431.5 650.5,431.5 649.5,431.5C 649.5,434.167 649.5,436.833 649.5,439.5C 650.5,439.5 651.5,439.5 652.5,439.5C 652.5,442.167 652.5,444.833 652.5,447.5C 651.5,447.5 650.5,447.5 649.5,447.5C 649.5,450.167 649.5,452.833 649.5,455.5C 647.833,455.5 646.167,455.5 644.5,455.5C 644.5,458.167 644.5,460.833 644.5,463.5C 643.5,463.5 642.5,463.5 641.5,463.5C 641.828,468.875 641.495,474.208 640.5,479.5C 639.501,463.514 639.167,447.514 639.5,431.5C 636.121,431.322 632.955,431.322 630,431.5C 629.502,429.473 629.669,427.473 630.5,425.5C 627.603,422.016 627.937,419.016 631.5,416.5C 629.276,415.22 627.276,415.553 625.5,417.5C 624.646,416.478 623.646,415.645 622.5,415C 622.957,414.586 623.291,414.086 623.5,413.5C 621.841,412.183 620.674,410.517 620,408.5C 619.583,409.756 618.75,410.423 617.5,410.5C 603.713,414.411 589.713,417.578 575.5,420C 544.083,423.436 514.75,417.436 487.5,402C 480.424,397.594 473.924,392.428 468,386.5C 467.51,387.793 467.343,389.127 467.5,390.5C 465.716,391.574 464.549,393.24 464,395.5C 463.316,394.216 463.483,393.049 464.5,392C 461.518,391.502 458.518,391.335 455.5,391.5C 455.5,388.833 455.5,386.167 455.5,383.5C 449.697,382.913 444.197,383.58 439,385.5C 437.951,383.893 436.451,383.227 434.5,383.5C 434.491,381.692 434.991,380.025 436,378.5C 436.556,380.595 437.056,380.762 437.5,379C 436.415,374.85 435.249,374.684 434,378.5C 433.517,377.552 433.351,376.552 433.5,375.5C 439.262,345.559 454.596,321.726 479.5,304C 519.578,279.955 560.578,278.288 602.5,299C 629.163,314.805 646.83,337.639 655.5,367.5 Z"/></g>
<g><path style="opacity:1" fill="#1e2124" d="M 178.5,304.5 C 193.053,303.877 198.553,310.543 195,324.5C 186.001,334.456 178.001,333.789 171,322.5C 168.877,314.427 171.377,308.427 178.5,304.5 Z"/></g>
<g><path style="opacity:1" fill="#1f1f21" d="M 391.5,304.5 C 404.158,303.326 409.991,308.992 409,321.5C 404.62,330.947 397.787,333.447 388.5,329C 383.346,323.656 382.18,317.489 385,310.5C 387.063,308.266 389.229,306.266 391.5,304.5 Z"/></g>
<g><path style="opacity:1" fill="#1f2224" d="M 222.5,350.5 C 235.158,349.326 240.991,354.992 240,367.5C 235.848,375.99 229.348,378.49 220.5,375C 212.057,366.049 212.724,357.882 222.5,350.5 Z"/></g>
<g><path style="opacity:1" fill="#1f2123" d="M 346.5,350.5 C 358.974,349.478 365.141,355.145 365,367.5C 361.219,375.305 355.053,378.138 346.5,376C 335.875,367.502 335.875,359.002 346.5,350.5 Z"/></g>
<g><path style="opacity:1" fill="#1d1f21" d="M 285.5,366.5 C 299.283,367.119 304.45,374.119 301,387.5C 291.125,396.567 283.125,395.234 277,383.5C 276.103,375.961 278.936,370.295 285.5,366.5 Z"/></g>
<g><path style="opacity:1" fill="#1c1d1f" d="M 655.5,367.5 C 656.438,372.127 657.271,376.794 658,381.5C 658.667,406.833 658.667,432.167 658,457.5C 652.112,497.143 631.946,526.976 597.5,547C 600.133,546.747 602.8,546.747 605.5,547C 627.6,554.693 649.6,562.693 671.5,571C 708.041,584.219 736.874,607.052 758,639.5C 761.041,644.248 763.541,649.248 765.5,654.5C 761.102,655.09 756.435,655.423 751.5,655.5C 751.211,651.894 751.544,648.394 752.5,645C 751.773,643.601 751.273,642.101 751,640.5C 745.928,639.529 740.762,639.195 735.5,639.5C 735.758,644.717 735.425,649.884 734.5,655C 735.193,657.705 736.526,660.039 738.5,662C 737.748,662.671 737.414,663.504 737.5,664.5C 733.118,656.088 727.951,648.088 722,640.5C 705.663,622.741 686.163,609.574 663.5,601C 648.763,595.803 634.097,590.303 619.5,584.5C 590.187,610.497 556.187,619.664 517.5,612C 497.277,607.222 479.611,597.722 464.5,583.5C 443.296,590.4 422.629,598.566 402.5,608C 389.084,616.047 376.751,625.547 365.5,636.5C 355.881,633.293 346.214,630.293 336.5,627.5C 338.121,623.603 340.288,619.936 343,616.5C 364.057,594.71 388.89,578.543 417.5,568C 437.693,561.571 457.693,554.571 477.5,547C 481.435,546.633 485.101,546.467 488.5,546.5C 456.406,526.669 437.572,498.002 432,460.5C 431.333,433.833 431.333,407.167 432,380.5C 432.198,378.618 432.698,376.952 433.5,375.5C 433.351,376.552 433.517,377.552 434,378.5C 435.249,374.684 436.415,374.85 437.5,379C 437.056,380.762 436.556,380.595 436,378.5C 434.991,380.025 434.491,381.692 434.5,383.5C 436.451,383.227 437.951,383.893 439,385.5C 444.197,383.58 449.697,382.913 455.5,383.5C 455.5,386.167 455.5,388.833 455.5,391.5C 458.518,391.335 461.518,391.502 464.5,392C 463.483,393.049 463.316,394.216 464,395.5C 464.549,393.24 465.716,391.574 467.5,390.5C 462.186,414.6 460.686,438.934 463,463.5C 469.502,490.324 485.002,510.157 509.5,523C 547.997,537.833 581.164,530 609,499.5C 624.021,480.094 630.021,458.094 627,433.5C 624.388,425.608 621.221,417.941 617.5,410.5C 618.75,410.423 619.583,409.756 620,408.5C 620.674,410.517 621.841,412.183 623.5,413.5C 623.291,414.086 622.957,414.586 622.5,415C 623.646,415.645 624.646,416.478 625.5,417.5C 627.276,415.553 629.276,415.22 631.5,416.5C 627.937,419.016 627.603,422.016 630.5,425.5C 629.669,427.473 629.502,429.473 630,431.5C 632.955,431.322 636.121,431.322 639.5,431.5C 639.167,447.514 639.501,463.514 640.5,479.5C 641.495,474.208 641.828,468.875 641.5,463.5C 642.5,463.5 643.5,463.5 644.5,463.5C 644.5,460.833 644.5,458.167 644.5,455.5C 646.167,455.5 647.833,455.5 649.5,455.5C 649.5,452.833 649.5,450.167 649.5,447.5C 650.5,447.5 651.5,447.5 652.5,447.5C 652.5,444.833 652.5,442.167 652.5,439.5C 651.5,439.5 650.5,439.5 649.5,439.5C 649.5,436.833 649.5,434.167 649.5,431.5C 650.5,431.5 651.5,431.5 652.5,431.5C 652.5,426.167 652.5,420.833 652.5,415.5C 648.167,415.5 643.833,415.5 639.5,415.5C 639.5,407.5 639.5,399.5 639.5,391.5C 642.167,391.5 644.833,391.5 647.5,391.5C 647.5,388.833 647.5,386.167 647.5,383.5C 644.833,383.5 642.167,383.5 639.5,383.5C 639.5,378.167 639.5,372.833 639.5,367.5C 643.226,367.823 646.893,367.489 650.5,366.5C 651,365.5 651.5,364.5 652,363.5C 653.405,364.731 654.571,366.064 655.5,367.5 Z"/></g>
<g><path style="opacity:1" fill="#fbfcfc" d="M 617.5,410.5 C 621.221,417.941 624.388,425.608 627,433.5C 630.021,458.094 624.021,480.094 609,499.5C 581.164,530 547.997,537.833 509.5,523C 485.002,510.157 469.502,490.324 463,463.5C 460.686,438.934 462.186,414.6 467.5,390.5C 467.343,389.127 467.51,387.793 468,386.5C 473.924,392.428 480.424,397.594 487.5,402C 514.75,417.436 544.083,423.436 575.5,420C 589.713,417.578 603.713,414.411 617.5,410.5 Z"/></g>
<g><path style="opacity:1" fill="#f8f9fa" d="M 501.5,551.5 C 522.488,560.992 544.488,563.159 567.5,558C 573.548,556.261 579.548,554.428 585.5,552.5C 586.491,558.979 586.824,565.646 586.5,572.5C 562.612,585.904 537.612,588.071 511.5,579C 507.924,576.81 504.257,574.81 500.5,573C 499.663,571.989 499.33,570.822 499.5,569.5C 498.88,563.074 499.547,557.074 501.5,551.5 Z"/></g>
<g><path style="opacity:1" fill="#515455" d="M 501.5,551.5 C 499.547,557.074 498.88,563.074 499.5,569.5C 498.51,563.355 498.177,557.022 498.5,550.5C 499.791,550.263 500.791,550.596 501.5,551.5 Z"/></g>
<g><path style="opacity:1" fill="#7d7e81" d="M 585.5,552.5 C 585.56,551.957 585.893,551.624 586.5,551.5C 587.819,558.656 587.819,565.656 586.5,572.5C 586.824,565.646 586.491,558.979 585.5,552.5 Z"/></g>
<g><path style="opacity:1" fill="#1b1c1f" d="M 765.5,654.5 C 771.659,667.482 775.492,681.149 777,695.5C 777.667,721.167 777.667,746.833 777,772.5C 775.35,790.629 768.183,806.129 755.5,819C 772.83,819.5 790.163,819.667 807.5,819.5C 808.5,819.5 809.5,819.5 810.5,819.5C 810.5,790.167 810.5,760.833 810.5,731.5C 811.585,727.246 814.252,724.413 818.5,723C 831.5,722.333 844.5,722.333 857.5,723C 860.171,724.25 862.337,726.083 864,728.5C 865.484,758.746 865.984,789.079 865.5,819.5C 893.231,819.026 920.897,819.526 948.5,821C 955.795,827.295 957.295,834.795 953,843.5C 951.269,845.617 949.102,847.117 946.5,848C 656.833,848.667 367.167,848.667 77.5,848C 69.8863,843.699 67.3863,837.199 70,828.5C 71.5,824.333 74.3333,821.5 78.5,820C 84.1569,819.501 89.8236,819.334 95.5,819.5C 104.5,819.5 113.5,819.5 122.5,819.5C 171.335,820.831 220.335,820.831 269.5,819.5C 269.376,818.893 269.043,818.56 268.5,818.5C 267.167,817.833 265.833,817.167 264.5,816.5C 241.158,788.612 236.991,757.945 252,724.5C 259.663,709.171 267.829,694.171 276.5,679.5C 280.77,693.916 284.103,708.583 286.5,723.5C 282.77,730.629 279.27,737.963 276,745.5C 269.068,773.72 278.235,794.886 303.5,809C 314.549,811.128 325.216,814.461 335.5,819C 352.163,819.5 368.83,819.667 385.5,819.5C 392.151,798.937 385.151,785.103 364.5,778C 347.5,777.667 330.5,777.333 313.5,777C 302.124,772.421 298.957,764.588 304,753.5C 307.442,748.362 312.275,745.695 318.5,745.5C 313.812,717.395 308.479,689.395 302.5,661.5C 302.792,654.104 306.625,650.104 314,649.5C 370.368,666.635 426.534,684.468 482.5,703C 490.605,705.368 498.772,707.534 507,709.5C 568.009,690.608 628.843,671.108 689.5,651C 701.503,646.858 708.17,651.025 709.5,663.5C 703.851,690.732 698.851,718.065 694.5,745.5C 707.536,743.841 715.536,749.341 718.5,762C 718.177,769.32 714.51,773.987 707.5,776C 691.5,776.333 675.5,776.667 659.5,777C 640.688,780.462 631.521,791.629 632,810.5C 633.037,813.405 634.204,816.239 635.5,819C 652.833,819.667 670.167,819.667 687.5,819C 700.107,814.124 712.773,809.457 725.5,805C 737.858,796.795 745.024,785.295 747,770.5C 747.667,746.167 747.667,721.833 747,697.5C 745.344,686.035 742.177,675.035 737.5,664.5C 737.414,663.504 737.748,662.671 738.5,662C 736.526,660.039 735.193,657.705 734.5,655C 735.425,649.884 735.758,644.717 735.5,639.5C 740.762,639.195 745.928,639.529 751,640.5C 751.273,642.101 751.773,643.601 752.5,645C 751.544,648.394 751.211,651.894 751.5,655.5C 756.435,655.423 761.102,655.09 765.5,654.5 Z"/></g>
<g><path style="opacity:1" fill="#fcfdfd" d="M 517.5,739.5 C 519.597,739.997 521.43,740.33 523,740.5C 523.5,766.498 523.667,792.498 523.5,818.5C 513.833,818.5 504.167,818.5 494.5,818.5C 494.333,790.831 494.5,763.165 495,735.5C 501.756,740.529 509.256,741.862 517.5,739.5 Z"/></g>
<g><path style="opacity:1" fill="#cdced2" d="M 494.5,818.5 C 504.167,818.5 513.833,818.5 523.5,818.5C 523.667,792.498 523.5,766.498 523,740.5C 521.43,740.33 519.597,739.997 517.5,739.5C 519.435,738.19 521.435,736.857 523.5,735.5C 524.5,763.492 524.833,791.492 524.5,819.5C 514.319,819.827 504.319,819.494 494.5,818.5 Z"/></g>
<g><path style="opacity:1" fill="#babbbf" d="M 810.5,731.5 C 810.5,760.833 810.5,790.167 810.5,819.5C 809.5,819.5 808.5,819.5 807.5,819.5C 809.15,790.22 810.15,760.887 810.5,731.5 Z"/></g>
<g><path style="opacity:1" fill="#e3e4e6" d="M 264.5,816.5 C 265.833,817.167 267.167,817.833 268.5,818.5C 220.003,819.499 171.336,819.832 122.5,819.5C 113.5,819.5 104.5,819.5 95.5,819.5C 152.007,819.166 208.341,818.166 264.5,816.5 Z"/></g>
<g><path style="opacity:1" fill="#323335" d="M 268.5,818.5 C 269.043,818.56 269.376,818.893 269.5,819.5C 220.335,820.831 171.335,820.831 122.5,819.5C 171.336,819.832 220.003,819.499 268.5,818.5 Z"/></g>
<g><path style="opacity:1" fill="#eef0f0" d="M 847.5,869.5 C 692.833,869.5 538.167,869.5 383.5,869.5C 309.833,869.5 236.167,869.5 162.5,869.5C 198.671,868.781 235.005,868.114 271.5,867.5C 463.607,868.02 655.607,868.687 847.5,869.5 Z"/></g>
<g><path style="opacity:1" fill="#1c1e21" d="M 162.5,869.5 C 236.167,869.5 309.833,869.5 383.5,869.5C 553.501,870.221 723.668,870.888 894,871.5C 906.833,871.333 919.667,871.167 932.5,871C 936.356,870.823 940.023,870.323 943.5,869.5C 949.225,870.056 953.058,873.056 955,878.5C 957.236,887.842 954.07,894.342 945.5,898C 939.175,898.5 932.842,898.666 926.5,898.5C 926.667,914.503 926.5,930.503 926,946.5C 925.434,949.229 923.934,951.229 921.5,952.5C 921.631,951.761 921.464,951.094 921,950.5C 907.246,951.49 893.412,951.823 879.5,951.5C 879.649,950.448 879.483,949.448 879,948.5C 868.582,949.487 858.082,949.82 847.5,949.5C 847.5,947.5 847.5,945.5 847.5,943.5C 844.833,943.5 842.167,943.5 839.5,943.5C 839.5,945.5 839.5,947.5 839.5,949.5C 836.833,949.5 834.167,949.5 831.5,949.5C 831.5,947.5 831.5,945.5 831.5,943.5C 828.833,943.5 826.167,943.5 823.5,943.5C 823.5,942.167 823.5,940.833 823.5,939.5C 826.167,939.5 828.833,939.5 831.5,939.5C 831.5,935.5 831.5,931.5 831.5,927.5C 834.167,927.5 836.833,927.5 839.5,927.5C 858.143,926.718 876.809,926.218 895.5,926C 639.827,925.173 394.161,925.339 158.5,926.5C 158.369,927.239 158.536,927.906 159,928.5C 164,928.167 169,927.833 174,927.5C 175.375,929.937 175.875,932.603 175.5,935.5C 178.167,935.5 180.833,935.5 183.5,935.5C 183.5,934.167 183.5,932.833 183.5,931.5C 194.167,931.5 204.833,931.5 215.5,931.5C 215.343,930.127 215.51,928.793 216,927.5C 232.705,928.595 250.871,928.761 270.5,928C 271.435,930.381 271.768,932.881 271.5,935.5C 274.167,935.5 276.833,935.5 279.5,935.5C 279.5,934.167 279.5,932.833 279.5,931.5C 284.833,931.5 290.167,931.5 295.5,931.5C 295.5,932.833 295.5,934.167 295.5,935.5C 300.833,935.5 306.167,935.5 311.5,935.5C 311.5,940.167 311.5,944.833 311.5,949.5C 308.833,949.5 306.167,949.5 303.5,949.5C 303.5,947.5 303.5,945.5 303.5,943.5C 293.167,943.5 282.833,943.5 272.5,943.5C 272.425,946.206 272.092,948.873 271.5,951.5C 266.167,951.5 260.833,951.5 255.5,951.5C 255.768,948.881 255.435,946.381 254.5,944C 249.511,943.501 244.511,943.334 239.5,943.5C 239.5,946.167 239.5,948.833 239.5,951.5C 234.167,951.5 228.833,951.5 223.5,951.5C 223.5,948.833 223.5,946.167 223.5,943.5C 218.167,943.5 212.833,943.5 207.5,943.5C 207.5,945.5 207.5,947.5 207.5,949.5C 199.248,949.868 191.748,949.201 185,947.5C 183.812,948.563 183.312,949.897 183.5,951.5C 180.833,951.5 178.167,951.5 175.5,951.5C 175.5,948.833 175.5,946.167 175.5,943.5C 159.5,943.5 143.5,943.5 127.5,943.5C 127.5,946.167 127.5,948.833 127.5,951.5C 124.833,951.5 122.167,951.5 119.5,951.5C 119.5,948.833 119.5,946.167 119.5,943.5C 115.449,943.077 111.616,943.744 108,945.5C 107.05,944.978 106.216,944.311 105.5,943.5C 104.345,932.894 103.512,932.894 103,943.5C 102.148,944.571 101.315,945.571 100.5,946.5C 99.5036,930.675 99.1703,914.675 99.5,898.5C 92.1591,898.666 84.8258,898.5 77.5,898C 69.9443,893.152 67.4443,886.318 70,877.5C 71.8333,874.333 74.3333,871.833 77.5,870C 105.831,869.5 134.165,869.333 162.5,869.5 Z"/></g>
<g><path style="opacity:1" fill="#0f1012" d="M 383.5,869.5 C 538.167,869.5 692.833,869.5 847.5,869.5C 879.5,869.5 911.5,869.5 943.5,869.5C 940.023,870.323 936.356,870.823 932.5,871C 919.667,871.167 906.833,871.333 894,871.5C 723.668,870.888 553.501,870.221 383.5,869.5 Z"/></g>
<g><path style="opacity:1" fill="#151b1c" d="M 863.5,891.5 C 866.167,891.5 868.833,891.5 871.5,891.5C 871.5,892.833 871.5,894.167 871.5,895.5C 879.53,895.478 887.53,895.978 895.5,897C 642.166,897.833 388.833,897.667 135.5,896.5C 154.157,895.567 172.823,894.9 191.5,894.5C 292.797,894.68 394.131,894.847 495.5,895C 492.833,895.333 490.167,895.667 487.5,896C 491.5,896.167 495.5,896.333 499.5,896.5C 620.815,894.546 742.148,893.879 863.5,894.5C 863.5,893.5 863.5,892.5 863.5,891.5 Z"/></g>
<g><path style="opacity:1" fill="#fdfefe" d="M 130.5,898.5 C 386.169,897.834 641.502,898.501 896.5,900.5C 895.508,907.982 895.175,915.648 895.5,923.5C 640.5,923.5 385.5,923.5 130.5,923.5C 130.5,915.167 130.5,906.833 130.5,898.5 Z"/></g>
<g><path style="opacity:1" fill="#eef1f0" d="M 130.5,898.5 C 130.5,906.833 130.5,915.167 130.5,923.5C 385.5,923.5 640.5,923.5 895.5,923.5C 895.175,915.648 895.508,907.982 896.5,900.5C 896.5,908.5 896.5,916.5 896.5,924.5C 640.833,924.5 385.167,924.5 129.5,924.5C 129.174,915.651 129.507,906.984 130.5,898.5 Z"/></g>
<g><path style="opacity:1" fill="#0f1211" d="M 839.5,927.5 C 810.338,926.502 781.005,926.169 751.5,926.5C 666.181,926.631 580.847,926.631 495.5,926.5C 383.933,926.916 271.599,926.916 158.5,926.5C 394.161,925.339 639.827,925.173 895.5,926C 876.809,926.218 858.143,926.718 839.5,927.5 Z"/></g>
<g><path style="opacity:1" fill="#1c1d20" d="M 158.5,926.5 C 271.599,926.916 383.933,926.916 495.5,926.5C 490.1,927.187 484.6,927.854 479,928.5C 474,928.167 469,927.833 464,927.5C 463.51,928.793 463.343,930.127 463.5,931.5C 450.167,931.5 436.833,931.5 423.5,931.5C 423.688,929.897 423.188,928.563 422,927.5C 414.667,928.833 407.333,928.833 400,927.5C 399.51,928.793 399.343,930.127 399.5,931.5C 386.167,931.5 372.833,931.5 359.5,931.5C 359.5,932.833 359.5,934.167 359.5,935.5C 356.833,935.5 354.167,935.5 351.5,935.5C 351.875,932.603 351.375,929.937 350,927.5C 342.411,928.324 335.078,928.324 328,927.5C 327.51,928.793 327.343,930.127 327.5,931.5C 324.833,931.5 322.167,931.5 319.5,931.5C 319.5,935.5 319.5,939.5 319.5,943.5C 322.167,943.5 324.833,943.5 327.5,943.5C 327.5,945.5 327.5,947.5 327.5,949.5C 330.167,949.5 332.833,949.5 335.5,949.5C 335.5,947.5 335.5,945.5 335.5,943.5C 340.833,943.5 346.167,943.5 351.5,943.5C 351.5,945.5 351.5,947.5 351.5,949.5C 359.548,949.506 367.548,950.172 375.5,951.5C 388.66,949.697 401.994,949.03 415.5,949.5C 415.5,947.5 415.5,945.5 415.5,943.5C 436.833,943.5 458.167,943.5 479.5,943.5C 479.5,945.5 479.5,947.5 479.5,949.5C 483.007,950.006 486.174,949.34 489,947.5C 506.333,947.5 523.667,947.5 541,947.5C 541.75,948.126 542.584,948.626 543.5,949C 548.823,949.499 554.156,949.666 559.5,949.5C 559.5,944.833 559.5,940.167 559.5,935.5C 562.167,935.5 564.833,935.5 567.5,935.5C 567.5,938.167 567.5,940.833 567.5,943.5C 575.5,943.5 583.5,943.5 591.5,943.5C 591.5,945.5 591.5,947.5 591.5,949.5C 595.007,950.006 598.174,949.34 601,947.5C 611,948.833 621,948.833 631,947.5C 638.894,949.449 647.061,950.116 655.5,949.5C 655.5,947.5 655.5,945.5 655.5,943.5C 660.833,943.5 666.167,943.5 671.5,943.5C 671.5,940.833 671.5,938.167 671.5,935.5C 674.167,935.5 676.833,935.5 679.5,935.5C 679.5,938.167 679.5,940.833 679.5,943.5C 692.833,943.5 706.167,943.5 719.5,943.5C 719.5,945.5 719.5,947.5 719.5,949.5C 735.5,949.5 751.5,949.5 767.5,949.5C 767.5,947.5 767.5,945.5 767.5,943.5C 783.5,943.5 799.5,943.5 815.5,943.5C 815.5,940.833 815.5,938.167 815.5,935.5C 812.833,935.5 810.167,935.5 807.5,935.5C 807.5,934.167 807.5,932.833 807.5,931.5C 804.833,931.5 802.167,931.5 799.5,931.5C 799.688,929.897 799.188,928.563 798,927.5C 788,928.833 778,928.833 768,927.5C 767.503,930.146 767.336,932.813 767.5,935.5C 764.833,935.5 762.167,935.5 759.5,935.5C 759.5,938.167 759.5,940.833 759.5,943.5C 756.833,943.5 754.167,943.5 751.5,943.5C 751.5,942.167 751.5,940.833 751.5,939.5C 746.167,939.5 740.833,939.5 735.5,939.5C 735.5,935.5 735.5,931.5 735.5,927.5C 741.026,927.821 746.36,927.488 751.5,926.5C 781.005,926.169 810.338,926.502 839.5,927.5C 836.833,927.5 834.167,927.5 831.5,927.5C 831.5,931.5 831.5,935.5 831.5,939.5C 828.833,939.5 826.167,939.5 823.5,939.5C 823.5,940.833 823.5,942.167 823.5,943.5C 826.167,943.5 828.833,943.5 831.5,943.5C 831.5,945.5 831.5,947.5 831.5,949.5C 834.167,949.5 836.833,949.5 839.5,949.5C 839.5,947.5 839.5,945.5 839.5,943.5C 842.167,943.5 844.833,943.5 847.5,943.5C 847.5,945.5 847.5,947.5 847.5,949.5C 858.082,949.82 868.582,949.487 879,948.5C 879.483,949.448 879.649,950.448 879.5,951.5C 893.412,951.823 907.246,951.49 921,950.5C 921.464,951.094 921.631,951.761 921.5,952.5C 649.569,953.666 377.569,953.832 105.5,953C 103.21,951.223 101.543,949.056 100.5,946.5C 101.315,945.571 102.148,944.571 103,943.5C 103.512,932.894 104.345,932.894 105.5,943.5C 106.216,944.311 107.05,944.978 108,945.5C 111.616,943.744 115.449,943.077 119.5,943.5C 119.5,946.167 119.5,948.833 119.5,951.5C 122.167,951.5 124.833,951.5 127.5,951.5C 127.5,948.833 127.5,946.167 127.5,943.5C 143.5,943.5 159.5,943.5 175.5,943.5C 175.5,946.167 175.5,948.833 175.5,951.5C 178.167,951.5 180.833,951.5 183.5,951.5C 183.312,949.897 183.812,948.563 185,947.5C 191.748,949.201 199.248,949.868 207.5,949.5C 207.5,947.5 207.5,945.5 207.5,943.5C 212.833,943.5 218.167,943.5 223.5,943.5C 223.5,946.167 223.5,948.833 223.5,951.5C 228.833,951.5 234.167,951.5 239.5,951.5C 239.5,948.833 239.5,946.167 239.5,943.5C 244.511,943.334 249.511,943.501 254.5,944C 255.435,946.381 255.768,948.881 255.5,951.5C 260.833,951.5 266.167,951.5 271.5,951.5C 272.092,948.873 272.425,946.206 272.5,943.5C 282.833,943.5 293.167,943.5 303.5,943.5C 303.5,945.5 303.5,947.5 303.5,949.5C 306.167,949.5 308.833,949.5 311.5,949.5C 311.5,944.833 311.5,940.167 311.5,935.5C 306.167,935.5 300.833,935.5 295.5,935.5C 295.5,934.167 295.5,932.833 295.5,931.5C 290.167,931.5 284.833,931.5 279.5,931.5C 279.5,932.833 279.5,934.167 279.5,935.5C 276.833,935.5 274.167,935.5 271.5,935.5C 271.768,932.881 271.435,930.381 270.5,928C 250.871,928.761 232.705,928.595 216,927.5C 215.51,928.793 215.343,930.127 215.5,931.5C 204.833,931.5 194.167,931.5 183.5,931.5C 183.5,932.833 183.5,934.167 183.5,935.5C 180.833,935.5 178.167,935.5 175.5,935.5C 175.875,932.603 175.375,929.937 174,927.5C 169,927.833 164,928.167 159,928.5C 158.536,927.906 158.369,927.239 158.5,926.5 Z"/></g>
<g><path style="opacity:1" fill="#1a1b1f" d="M 495.5,926.5 C 580.847,926.631 666.181,926.631 751.5,926.5C 746.36,927.488 741.026,927.821 735.5,927.5C 735.5,931.5 735.5,935.5 735.5,939.5C 740.833,939.5 746.167,939.5 751.5,939.5C 751.5,940.833 751.5,942.167 751.5,943.5C 754.167,943.5 756.833,943.5 759.5,943.5C 759.5,940.833 759.5,938.167 759.5,935.5C 762.167,935.5 764.833,935.5 767.5,935.5C 767.336,932.813 767.503,930.146 768,927.5C 778,928.833 788,928.833 798,927.5C 799.188,928.563 799.688,929.897 799.5,931.5C 802.167,931.5 804.833,931.5 807.5,931.5C 807.5,932.833 807.5,934.167 807.5,935.5C 810.167,935.5 812.833,935.5 815.5,935.5C 815.5,938.167 815.5,940.833 815.5,943.5C 799.5,943.5 783.5,943.5 767.5,943.5C 767.5,945.5 767.5,947.5 767.5,949.5C 751.5,949.5 735.5,949.5 719.5,949.5C 719.5,947.5 719.5,945.5 719.5,943.5C 706.167,943.5 692.833,943.5 679.5,943.5C 679.5,940.833 679.5,938.167 679.5,935.5C 676.833,935.5 674.167,935.5 671.5,935.5C 671.5,938.167 671.5,940.833 671.5,943.5C 666.167,943.5 660.833,943.5 655.5,943.5C 655.5,945.5 655.5,947.5 655.5,949.5C 647.061,950.116 638.894,949.449 631,947.5C 621,948.833 611,948.833 601,947.5C 598.174,949.34 595.007,950.006 591.5,949.5C 591.5,947.5 591.5,945.5 591.5,943.5C 583.5,943.5 575.5,943.5 567.5,943.5C 567.5,940.833 567.5,938.167 567.5,935.5C 564.833,935.5 562.167,935.5 559.5,935.5C 559.5,940.167 559.5,944.833 559.5,949.5C 554.156,949.666 548.823,949.499 543.5,949C 542.584,948.626 541.75,948.126 541,947.5C 523.667,947.5 506.333,947.5 489,947.5C 486.174,949.34 483.007,950.006 479.5,949.5C 479.5,947.5 479.5,945.5 479.5,943.5C 458.167,943.5 436.833,943.5 415.5,943.5C 415.5,945.5 415.5,947.5 415.5,949.5C 401.994,949.03 388.66,949.697 375.5,951.5C 367.548,950.172 359.548,949.506 351.5,949.5C 351.5,947.5 351.5,945.5 351.5,943.5C 346.167,943.5 340.833,943.5 335.5,943.5C 335.5,945.5 335.5,947.5 335.5,949.5C 332.833,949.5 330.167,949.5 327.5,949.5C 327.5,947.5 327.5,945.5 327.5,943.5C 324.833,943.5 322.167,943.5 319.5,943.5C 319.5,939.5 319.5,935.5 319.5,931.5C 322.167,931.5 324.833,931.5 327.5,931.5C 327.343,930.127 327.51,928.793 328,927.5C 335.078,928.324 342.411,928.324 350,927.5C 351.375,929.937 351.875,932.603 351.5,935.5C 354.167,935.5 356.833,935.5 359.5,935.5C 359.5,934.167 359.5,932.833 359.5,931.5C 372.833,931.5 386.167,931.5 399.5,931.5C 399.343,930.127 399.51,928.793 400,927.5C 407.333,928.833 414.667,928.833 422,927.5C 423.188,928.563 423.688,929.897 423.5,931.5C 436.833,931.5 450.167,931.5 463.5,931.5C 463.343,930.127 463.51,928.793 464,927.5C 469,927.833 474,928.167 479,928.5C 484.6,927.854 490.1,927.187 495.5,926.5 Z"/></g>
</svg>
